<svg width="92" height="107" viewBox="0 0 92 107" fill="none" xmlns="http://www.w3.org/2000/svg">
<path d="M59.5521 42.1203L62.9908 42.8299L85.7521 54.1833C89.5729 55.4387 92.0837 59.2049 91.7562 63.2441V64.6633L86.8437 98.0683C86.5162 100.415 85.4792 102.599 83.5687 104.127C81.8767 105.764 79.6387 106.583 77.2917 106.583H39.7383C37.0637 106.583 34.6075 105.601 32.8063 103.69L0.110832 71.1041L5.02333 65.6458C6.33333 64.2812 8.4075 63.517 10.3725 63.6262H11.9554L33.625 68.3749V11.0624C33.625 8.16714 34.7751 5.39044 36.8224 3.34317C38.8697 1.2959 41.6464 0.145752 44.5417 0.145752C47.4369 0.145752 50.2136 1.2959 52.2609 3.34317C54.3082 5.39044 55.4583 8.16714 55.4583 11.0624V42.1203H59.5521Z" fill="#FE9E0D"/>
</svg>