<svg width="111" height="80" viewBox="0 0 111 80" fill="none" xmlns="http://www.w3.org/2000/svg">
<path d="M10.5 0C7.84784 0 5.3043 1.05357 3.42893 2.92893C1.55357 4.8043 0.5 7.34784 0.5 10V65H10.5C10.5 68.9782 12.0804 72.7936 14.8934 75.6066C17.7064 78.4197 21.5218 80 25.5 80C29.4782 80 33.2936 78.4197 36.1066 75.6066C38.9197 72.7936 40.5 68.9782 40.5 65H70.5C70.5 68.9782 72.0803 72.7936 74.8934 75.6066C77.7064 78.4197 81.5218 80 85.5 80C89.4782 80 93.2936 78.4197 96.1066 75.6066C98.9197 72.7936 100.5 68.9782 100.5 65H110.5V40L95.5 20H80.5V0M45.5 10L65.5 30L45.5 50V35H15.5V25H45.5M80.5 27.5H93L102.85 40H80.5M25.5 57.5C27.4891 57.5 29.3968 58.2902 30.8033 59.6967C32.2098 61.1032 33 63.0109 33 65C33 66.9891 32.2098 68.8968 30.8033 70.3033C29.3968 71.7098 27.4891 72.5 25.5 72.5C23.5109 72.5 21.6032 71.7098 20.1967 70.3033C18.7902 68.8968 18 66.9891 18 65C18 63.0109 18.7902 61.1032 20.1967 59.6967C21.6032 58.2902 23.5109 57.5 25.5 57.5ZM85.5 57.5C87.4891 57.5 89.3968 58.2902 90.8033 59.6967C92.2098 61.1032 93 63.0109 93 65C93 66.9891 92.2098 68.8968 90.8033 70.3033C89.3968 71.7098 87.4891 72.5 85.5 72.5C83.5109 72.5 81.6032 71.7098 80.1967 70.3033C78.7902 68.8968 78 66.9891 78 65C78 63.0109 78.7902 61.1032 80.1967 59.6967C81.6032 58.2902 83.5109 57.5 85.5 57.5Z" fill="#FE9E0D"/>
</svg>