<svg width="860" height="1071" viewBox="0 0 860 1071" fill="none" xmlns="http://www.w3.org/2000/svg">
<path d="M40.7105 0H862V1028.77L805.167 1055.11C798.519 1058.2 791.656 1060.79 784.633 1062.88L775.298 1065.66C750.549 1073.03 724.1 1072.35 699.761 1063.72C692.297 1061.08 685.108 1057.71 678.296 1053.67L664.413 1045.43C645.746 1034.36 628.394 1021.21 612.69 1006.22L597.824 992.044L555.344 951.335L514.633 908.857L464.188 838.945L429.23 773.458L427.197 770.665C404.137 738.994 377.663 709.957 348.252 684.076C310.85 651.978 270.858 623.028 228.683 597.524L199.127 579.651L153.368 547.767C128.509 530.446 105.893 510.111 86.0372 487.228L82.2064 482.813C69.9091 468.64 58.9515 453.359 49.4742 437.164C35.729 413.677 25.2026 388.449 18.1778 362.157L13.2751 343.808L10.0168 325.237C3.35155 287.247 0 248.749 0 210.179C0 174.284 3.66491 138.483 10.9377 103.333L13.2751 92.0362L40.7105 0Z" fill="#FE9E0D"/>
</svg>