<svg width="138" height="37" viewBox="0 0 138 37" fill="none" xmlns="http://www.w3.org/2000/svg">
<path d="M12.525 36.495C10.815 36.495 9.345 36.165 8.115 35.505C6.915 34.845 5.91 33.99 5.1 32.94L5.595 31.635V36H0.465V0.854999H5.55V20.79L5.46 18.99C6.24 18.15 7.29 17.46 8.61 16.92C9.96 16.35 11.49 16.065 13.2 16.065C14.88 16.065 16.41 16.47 17.79 17.28C19.2 18.06 20.325 19.2 21.165 20.7C22.005 22.2 22.425 24 22.425 26.1C22.425 28.26 21.96 30.12 21.03 31.68C20.13 33.21 18.93 34.395 17.43 35.235C15.93 36.075 14.295 36.495 12.525 36.495ZM11.4 32.175C12.48 32.175 13.455 31.905 14.325 31.365C15.225 30.825 15.93 30.105 16.44 29.205C16.95 28.275 17.205 27.24 17.205 26.1C17.205 24.93 16.95 23.91 16.44 23.04C15.93 22.14 15.225 21.435 14.325 20.925C13.455 20.385 12.48 20.115 11.4 20.115C9.99 20.115 8.76 20.475 7.71 21.195C6.66 21.885 5.955 22.83 5.595 24.03V28.26C6.015 29.43 6.72 30.375 7.71 31.095C8.73 31.815 9.96 32.175 11.4 32.175ZM33.919 36.81C32.179 36.81 30.739 36.285 29.599 35.235C28.459 34.155 27.859 32.775 27.799 31.095V16.92H32.929V29.25C32.989 30.21 33.244 30.975 33.694 31.545C34.174 32.115 34.939 32.415 35.989 32.445C36.979 32.445 37.849 32.145 38.599 31.545C39.379 30.915 39.979 30.06 40.399 28.98C40.849 27.9 41.074 26.67 41.074 25.29V16.92H46.204V36H41.569L41.164 31.86L41.299 32.49C40.699 33.75 39.754 34.785 38.464 35.595C37.174 36.405 35.659 36.81 33.919 36.81ZM55.4954 21.105C54.4754 21.105 53.6054 20.775 52.8854 20.115C52.1654 19.425 51.8054 18.48 51.8054 17.28V15.075H55.6754V15.705C55.6754 16.245 55.7954 16.59 56.0354 16.74C56.2754 16.86 56.6654 16.92 57.2054 16.92H69.3554L58.3304 32.85L57.3404 31.815H69.2204V36H50.8154L62.1104 19.62L62.8754 21.105H55.4954ZM98.527 30.825H109.282V36H91.507L98.527 30.825ZM74.182 19.62C74.182 17.37 74.617 15.24 75.487 13.23C76.357 11.19 77.557 9.405 79.087 7.875C80.617 6.315 82.387 5.085 84.397 4.185C86.437 3.285 88.597 2.835 90.877 2.835C93.187 2.835 95.347 3.285 97.357 4.185C99.397 5.085 101.197 6.315 102.757 7.875C104.317 9.405 105.532 11.19 106.402 13.23C107.272 15.24 107.707 17.37 107.707 19.62C107.707 21.96 107.272 24.135 106.402 26.145C105.532 28.155 104.317 29.94 102.757 31.5C101.197 33.03 99.397 34.23 97.357 35.1C95.347 35.94 93.187 36.36 90.877 36.36C88.597 36.36 86.437 35.94 84.397 35.1C82.387 34.23 80.617 33.045 79.087 31.545C77.557 30.015 76.357 28.23 75.487 26.19C74.617 24.15 74.182 21.96 74.182 19.62ZM79.672 19.665C79.672 21.765 80.167 23.7 81.157 25.47C82.177 27.21 83.542 28.605 85.252 29.655C86.992 30.675 88.927 31.185 91.057 31.185C93.157 31.185 95.047 30.675 96.727 29.655C98.407 28.605 99.742 27.21 100.732 25.47C101.722 23.7 102.217 21.75 102.217 19.62C102.217 18.06 101.917 16.59 101.317 15.21C100.747 13.8 99.952 12.57 98.932 11.52C97.912 10.47 96.712 9.645 95.332 9.045C93.982 8.445 92.512 8.145 90.922 8.145C88.822 8.145 86.917 8.67 85.207 9.72C83.497 10.74 82.147 12.135 81.157 13.905C80.167 15.645 79.672 17.565 79.672 19.665ZM125.241 3.195C128.571 3.195 131.211 3.885 133.161 5.265C135.111 6.615 136.086 8.685 136.086 11.475C136.086 13.335 135.636 14.925 134.736 16.245C133.866 17.535 132.651 18.54 131.091 19.26C129.561 19.95 127.776 20.325 125.736 20.385L124.971 17.55C127.401 17.58 129.561 17.97 131.451 18.72C133.371 19.44 134.886 20.475 135.996 21.825C137.106 23.145 137.661 24.735 137.661 26.595C137.661 28.305 137.346 29.76 136.716 30.96C136.116 32.13 135.276 33.09 134.196 33.84C133.146 34.59 131.961 35.145 130.641 35.505C129.321 35.835 127.941 36 126.501 36H116.241V3.195H125.241ZM126.051 17.145C127.611 17.145 128.751 16.695 129.471 15.795C130.221 14.865 130.596 13.8 130.596 12.6C130.596 11.13 130.131 10.05 129.201 9.36C128.271 8.67 127.026 8.325 125.466 8.325H121.551V17.145H126.051ZM126.231 31.05C127.911 31.05 129.321 30.705 130.461 30.015C131.601 29.295 132.171 28.17 132.171 26.64C132.171 25.5 131.856 24.63 131.226 24.03C130.626 23.4 129.846 22.95 128.886 22.68C127.926 22.41 126.921 22.275 125.871 22.275H121.551V31.05H126.231Z" fill="#FE9E0D"/>
</svg>
