<svg width="121" height="123" viewBox="0 0 121 123" fill="none" xmlns="http://www.w3.org/2000/svg">
<path d="M110.178 121.128L100.925 112.022H105.625C105.625 113.686 105.061 115.081 103.933 116.205C102.809 117.333 101.415 117.897 99.75 117.897C98.0854 117.897 96.6911 117.333 95.567 116.205C94.439 115.081 93.875 113.686 93.875 112.022V104.972L2.07813 13.175C0.903134 12 0.339134 10.6037 0.386134 8.98613C0.437051 7.37246 1.05001 5.97813 2.22501 4.80313C3.40001 3.62813 4.7963 3.04062 6.41388 3.04062C8.02755 3.04062 9.42188 3.62813 10.5969 4.80313L118.55 112.903C119.725 114.078 120.313 115.449 120.313 117.016C120.313 118.582 119.725 119.953 118.55 121.128C117.375 122.303 115.981 122.891 114.367 122.891C112.749 122.891 111.353 122.303 110.178 121.128ZM105.625 83.2344L93.4344 71.0438L76.25 53.8594V29.625C76.25 21.4979 79.1151 14.5713 84.8451 8.84513C90.5713 3.11504 97.4979 0.25 105.625 0.25V83.2344ZM64.5 42.1094L52.75 30.3594V6.125C52.75 4.46042 53.314 3.06413 54.442 1.93612C55.5661 0.812041 56.9604 0.25 58.625 0.25C60.2896 0.25 61.6859 0.812041 62.8139 1.93612C63.938 3.06413 64.5 4.46042 64.5 6.125V42.1094ZM46.875 24.4844L35.125 12.7344V6.125C35.125 4.46042 35.6871 3.06413 36.8111 1.93612C37.9391 0.812041 39.3354 0.25 41 0.25C42.6646 0.25 44.0609 0.812041 45.1889 1.93612C46.313 3.06413 46.875 4.46042 46.875 6.125V24.4844ZM29.25 6.85938L22.6406 0.25C24.5011 0.25 26.0677 0.886459 27.3406 2.15938C28.6136 3.43229 29.25 4.99896 29.25 6.85938ZM35.125 111.875V63.9938C30.1313 62.6229 25.9463 59.8813 22.5701 55.7688C19.1901 51.6563 17.5 46.8583 17.5 41.375V11.8531L29.25 23.6031V41.375H35.125V29.4781L46.875 41.2281V41.375H47.0219L60.2406 54.5938C58.674 56.8458 56.7411 58.7787 54.442 60.3924C52.139 62.01 49.6167 63.2104 46.875 63.9938V111.875C46.875 113.54 46.313 114.934 45.1889 116.058C44.0609 117.186 42.6646 117.75 41 117.75C39.3354 117.75 37.9391 117.186 36.8111 116.058C35.6871 114.934 35.125 113.54 35.125 111.875Z" fill="#FE9E0D"/>
</svg>